# xmcd
#
# Track frame offsets:
#	150
#	16030
#	30779
#	53040
#	70936
#	86277
#	111555
#	122752
#	142650
#	159329
#	177266
#	193179
#	209803
#
# Disc length: 3023 seconds
#
# Revision: 1
# Processed by: cddbd v1.5.2PL0 Copyright (c) Steve Scherf et al.
# Submitted via: audiograbber 1.83.01
#
DISCID=a70bcd0d
DTITLE=Toby Keith - Noogies For Liberals
DYEAR=2008
DGENRE=Country
TTITLE0=Should've Been A Cowboy
TTITLE1=Courtesy Of The Red, White And Blue (The Angry American)
TTITLE2=Who's That Man
TTITLE3=Who's Your Daddy
TTITLE4=Beer For My Horses (With Willie Nelson)
TTITLE5=I Love This Bar
TTITLE6=You Ain't Much Fun
TTITLE7=American Soldier
TTITLE8=Big Ol' Truck
TTITLE9=Dream Walkin'
TTITLE10=Getcha Some
TTITLE11=Country Comes To Town
TTITLE12=Obama's Turban (I Stole it)
EXTD=
EXTT0=
EXTT1=
EXTT2=
EXTT3=
EXTT4=
EXTT5=
EXTT6=
EXTT7=
EXTT8=
EXTT9=
EXTT10=
EXTT11=
EXTT12=
PLAYORDER=
